/* XPM */
static char *_9357aab18994f0f9f87e4f2de33e316[] = {
/* columns rows colors chars-per-pixel */
"64 64 256 2 ",
"   c #090701",
".  c #1A1805",
"X  c #160A08",
"o  c #271A05",
"O  c #361908",
"+  c #281C16",
"@  c #341B15",
"#  c #2A0D05",
"$  c #172515",
"%  c #292508",
"&  c #372A07",
"*  c #2A3605",
"=  c #383607",
"-  c #282417",
";  c #372818",
":  c #3B3516",
">  c #1A3B2D",
",  c #282626",
"<  c #362B26",
"1  c #35382C",
"2  c #311C22",
"3  c #561901",
"4  c #4D180A",
"5  c #7A160A",
"6  c #781A18",
"7  c #71160C",
"8  c #49270A",
"9  c #463409",
"0  c #462B17",
"q  c #463417",
"w  c #533818",
"e  c #582B10",
"r  c #682808",
"t  c #792B06",
"y  c #7A3309",
"u  c #662815",
"i  c #683516",
"p  c #783814",
"a  c #752910",
"s  c #7C1E34",
"d  c #462C25",
"f  c #493826",
"g  c #443A36",
"h  c #5A373A",
"j  c #712E2A",
"k  c #451F2A",
"l  c #344409",
"z  c #334835",
"x  c #336236",
"c  c #4A4610",
"v  c #73481C",
"b  c #5A6D0B",
"n  c #5C740A",
"m  c #5B6C16",
"M  c #5B7416",
"N  c #4C701A",
"B  c #62750A",
"V  c #646B1A",
"C  c #647315",
"Z  c #746E12",
"A  c #464638",
"S  c #544F30",
"D  c #6C4E29",
"F  c #774B2A",
"G  c #685729",
"H  c #75572B",
"J  c #6A4A37",
"K  c #764D36",
"L  c #6A5836",
"P  c #735433",
"I  c #735B34",
"U  c #785938",
"Y  c #5A6A28",
"T  c #537728",
"R  c #4F6F33",
"E  c #676727",
"W  c #7A7D2A",
"Q  c #696539",
"!  c #776438",
"~  c #6F7130",
"^  c #3D3849",
"/  c #683644",
"(  c #354E4F",
")  c #0E6C52",
"_  c #377B56",
"`  c #2F6E4E",
"'  c #195879",
"]  c #2A4D78",
"[  c #265278",
"{  c #355072",
"}  c #1B7B6A",
"|  c #357769",
" . c #115050",
".. c #4C4B44",
"X. c #51504E",
"o. c #695742",
"O. c #775B45",
"+. c #6F5457",
"@. c #457758",
"#. c #516846",
"$. c #6A6645",
"%. c #796646",
"&. c #6E6C51",
"*. c #4A516F",
"=. c #52786F",
"-. c #706A6C",
";. c #795E6F",
":. c #860909",
">. c #950C09",
",. c #88150B",
"<. c #951208",
"1. c #8A0B14",
"2. c #960B17",
"3. c #881714",
"4. c #981716",
"5. c #AB1918",
"6. c #B61617",
"7. c #B00F0E",
"8. c #832906",
"9. c #85360B",
"0. c #853913",
"q. c #8F271A",
"w. c #AB2918",
"e. c #B71923",
"r. c #A51D21",
"t. c #872924",
"y. c #912829",
"u. c #AD2D29",
"i. c #9F1D22",
"p. c #C41615",
"a. c #C71D20",
"s. c #844413",
"d. c #90760A",
"f. c #854D36",
"g. c #835835",
"h. c #8B4D30",
"j. c #84653A",
"k. c #89792F",
"l. c #A5622F",
"z. c #AB2F53",
"x. c #8C354C",
"c. c #EA0B65",
"v. c #E3125D",
"b. c #8D4F47",
"n. c #B54B4C",
"m. c #856742",
"M. c #997D4A",
"N. c #987C56",
"B. c #8A6E50",
"V. c #A57D4A",
"C. c #A47C55",
"Z. c #B67D50",
"A. c #937A71",
"S. c #AD6573",
"D. c #DB516E",
"F. c #768817",
"G. c #7B911B",
"H. c #738A11",
"J. c #778926",
"K. c #788436",
"L. c #698429",
"P. c #538114",
"I. c #188B5C",
"U. c #0B8B5C",
"Y. c #398459",
"T. c #288653",
"R. c #198A68",
"E. c #118B6C",
"W. c #258666",
"Q. c #2F8C72",
"!. c #5C8A66",
"~. c #878303",
"^. c #988303",
"/. c #A7961A",
"(. c #AC9615",
"). c #888537",
"_. c #938B32",
"`. c #A6942D",
"'. c #9A854A",
"]. c #8B8556",
"[. c #9C8353",
"{. c #988656",
"}. c #8B924B",
"|. c #A4864B",
" X c #A38453",
".X c #A68758",
"XX c #B88A58",
"oX c #AA955A",
"OX c #B89659",
"+X c #AC944A",
"@X c #B6A257",
"#X c #928C6E",
"$X c #A78C65",
"%X c #AB9566",
"&X c #B39464",
"*X c #BC9B64",
"=X c #B89868",
"-X c #AD9677",
";X c #B99972",
":X c #B38A68",
">X c #93A371",
",X c #B7A46C",
"<X c #C48B59",
"1X c #C4965A",
"2X c #D3845B",
"3X c #C78C67",
"4X c #C49666",
"5X c #C59C73",
"6X c #CE9669",
"7X c #C2A572",
"8X c #C6A057",
"9X c #2B5A87",
"0X c #37568B",
"qX c #365697",
"wX c #2C508A",
"eX c #255A87",
"rX c #435A8E",
"tX c #ED3B88",
"yX c #A37A82",
"uX c #AC6681",
"iX c #DE4985",
"pX c #2EABB4",
"aX c #2A9196",
"sX c #478F84",
"dX c #779087",
"fX c #51A5B2",
"gX c #4E9BBB",
"hX c #11B5D4",
"jX c #33B5C9",
"kX c #15B1E4",
"lX c #3DBCE5",
"zX c #48B6D6",
"xX c #59C0D1",
"cX c #8F8C8A",
"vX c #B4B292",
"bX c #B6B4AB",
"nX c #99AB97",
"mX c #C9B398",
"MX c #C8ACAB",
"NX c #D59C9C",
"BX c #A5C2AC",
"VX c #FFDCD6",
"CX c #F3F2D7",
"ZX c #FFDAF6",
"AX c #FFDDE6",
"SX c #D2FAFD",
"DX c #FAEAE9",
"FX c #EBF9E8",
"GX c #F7F6EC",
"HX c #FBEDF7",
"JX c #EAFBF6",
"KX c #FDF3F4",
"LX c #FDF3FC",
"PX c #F8F9F7",
"IX c #EDEDEB",
"UX c #DBF8DC",
/* pixels */
"<X6X6X*X3X4X;X;X=X*X1X1X&XXXXX3X3X4X1X1X1X4X4X&X1X8X1XOX.X X|.|.{.{.{.{.[.'.[.{.I ! ~ ! OX@XOXOX*X*XOXOX3X3X3X2X6X6X;X3XM.'.{.{.",
"6X1XOX*X3X4X:X%X&X*X*XOXoXoXXX:X3X=XOXOXOX*X=X*XOX@X@XOX.X[.|.'.{.{.{. X X X X[.U U H I %X*XoXOX*XoX@XOX4X=X3X4X<X1X3X=X'.|.].oX",
"@XoXoX@X4X5X7X;X,X*X1XOXoXoXoX$X;X;X*X@X=X;X;X=X@X@X@X@X{.'.+X'..X.X{.C.C.C.C.C.m.O.U O.;X5X5X4X=X,X@XOX;X;X*X,X*X7X,X,X_._.).'.",
"8X,X,X,X:X:X%X%X%X&X=X&X}.>X$X$X-X%X%X%X%X$X%X%X+X+X@X+X'.).).).'.N.N.N.C.C.C.N.O.O.O.&.-X-X:X-X-X%X%X=X-X-X,X%XoX%X%XoX+X+X'.|.",
"=X=X:X$Xi e q q 9 q 0 0 q 0 0 0 d q q 9 q q q c J.).).).C ~ Z ~ 9 = : 9 d q 0 : ; - - - 1 : : 9 0 d q 0 1 d 1 : q = ; S k.'.M.M.",
"5X5XvX-Xd # # - . . # # . . # # + + o % % . % * K.F.J.J.C n b m * % o % o % o + + $ - . . . % o o # # . + X . X - . # : N.oX.X.X",
":X-X-X#X0 @ @ @ + - @ @ $ , 2 2 X             . K.J.J.L.C n B C % % O o O + ; + + . - . % . % o ; @ % % , , + - - + + 0 N.[.N.N.",
"5X4X;XNXu 4 4 k O O 4 O + + + 2 X.....X...A A Y K.F.G.F.M b n m * - % + ; ; @ ; - $ - % = * = & & % & % + , + + ; - @ d {.V.C..X",
"1X+X4X3Xq.q.i.y.3.,.6 u O %   ..IXIXIXGXIXGXFXCX}.F.G.F.B n n m : - ; < @ ; < ; < ; * : &.).).).V b V m : : q ; & w 0 w [.|._. X",
"8XOX1X2Xu.5.e.5.2.>.q.7 8 &   ..LXLXLXLXLXLXPXCX}.L.G.H.n B n V : ; ; < d ; ; ; ; - * = K.K.J.).Z b C b = = q = 0 q 0 w '.'.k.'.",
"1X1X6X2Xu.5.e.r.>.:.1.7 O %   A IXHXKXHXLXLXGXCX}.H.~.J.B C B b & ; ; 0 ; ; ; @ - * * l L.J.H.G.B b H.b l % & & : : ; f '.|.|. X",
"1X1X6XXXn.u.u.z.y.t.j j - > $ #.PXLXKXKXLXLXKXCX}.H.G.H.n B B V e k e u 4 4 0 0 ; * * * J.G.H.H.B B M M l l z z 1 1 1 A B.].'.M.",
"H J L B.NXNXNXMXyXA.cXdX=.Q.` dXIXLXKXLXLXLXPXCX}.F.G.F.B C n H 0.q.q.q.5 6 j u 8 8 & 9 J.~.H.F.B C M T R @.@.@.( ( ( ( &.$.! %.",
"P L A &.MXMXMXbXcXdXdXdXW.| ' sXJXGXGXGXLXLXGXCXK.F.G.H.M C M Z q.5.w.w.4.1.6 6 3 8 & 9 k.K.H.F.B b N T Y.Q.Q.| ) ) ` ( #.E I I ",
"L L L &.MXMXbXMXcXdXdXdX| Q.W.sXFXGXKXPXPXPXPXCX}.H.G.H.M M C H w.7.6.6.>.>.3.6 7 4 8 = K.J.G.G.M M N N Y.T.R.U.) ) ) ( R Y ! H ",
"Q o.S O.NXNXNXNXcX#X#XdX| W.E.!.DXAXDXAXZXHXDXVX}.K.K.L.E T E g.w.p.p.p.7.>.3.6 4 0 & = K.L.L.G.b M T P.Y.Q.W.aXU.) ` ` $.E k.H ",
"%X%X;X5Xu.u.u.z.q.y.j h Y.Q.} | S.D.D.D.c.tXiXD./ J S z A A d j w.p.p.6.7.:.3.6 r 8 & c L.J.H.F.C b C T BXBXBXBX!.dXdX#X-XoXoXOX",
"*X=X4X3Xu.5.6.6.:.:.:.u @.R.R.sXz.v.c.c.c.c.v.n.x./ X.^ ( ..^ h 4.p.6.7.<.<.3.6 u 8 9 l K.J.L.G.C m V T vXBXBXnXcXdXcXyX-XOX4X=X",
"6X4X5X3Xw.7.7.5.5 3.5 u @.W.} -.z.c.c.c.c.tXz.z.x./ A z z z 1 h q.w.5.5.4.<.5 6 3 8 9 9 K.J.G.H.C M C ~ BXBXbXBXcXcXcX#X;XOX&XOX",
"<XXX=X3Xu.6.e.u.,.t.1.j @.W.} =.iXiXtXtXtXtXiXuX+.S X.( z z ( g j w.q.3.4.<.3.6 7 r r 9 W G.H.H.B b T L.nXBXBXBXdXdXdX#X;X*X4X*X",
"|.|.'.Z.w.6.p.5.>.3.2.j @.R.R.sXHXAXZXZXZXZXZXZX+.......A z ^ h e u u a 2.5.r.r.3.,.5 r W H.H.H.n n M T Y.Q.Q.Q.} ) ) ( ].'. X|.",
"|.M._.Z.w.a.p.6.>.3.1.s @.R.R.sXFXGXKXKXZXHXHXHX+.g ....g ^ 1 g 0 8 e u 5.e.e.e.2.<.,.y ).G.H.H.n b N R T.U.U.E.) ) ) ` #X'..X X",
"`.V.|.Z.w.p.a.e.4.4.2.j Y.R.R.sXFXGXGXPXPXPXPXIX&.g S S g g A g f q q u i.e.e.5.<.<.<.t ).F.H.F.n n M P.T.I.R.R.) ) ) ` ].V.|.M.",
"Z.V.XXZ.w.7.6.6.:.3.1.j @.R.W.Q.FXGXGXJXPXPXFXCX&.f S S A c l A : 0 ; u i.e.e.6.<.<.<.8.k.~.H.F.n n b T T.U.R.I.) ) ) ` ]..X.X|.",
"<XOX8X<Xu.p.p.6.1.3.:.j Y.I.U.sXJXHXLXLXPXPXPXCX#XK.!.).Y N N T : 0 0 u i.e.e.5.>.<.<.8.k.~.F.~.M C V T T.I.W.W.) ) ) ` #X5XOX=X",
"+XOX7X3Xu.7.a.6.4.3.:.j _ I.U.Q.IXHXHXHXJXGXFXCXK.K.K.K.M n P.N : : : u i.e.e.e.>.<.>.8.k.K.F.J.C C V T T.I.R.W.) ) ) ` >X*X&X%X",
"@X,X7XXXu.5.6.e.,.,.5 j @.I.I.Q.JXPXPXJXFXJXUXCX>XK.).J.C b M m = ; ; e q.5.r.5.>.<.:.y k.).J.J.V E E T T.T.I.T.) )  .` >X7X;X;X",
"oX%X;XC.h.i.u.u.3.6 a i R T.T.Q.UXFXFXIXUXCXCXCXK.%.W k.Z V V E c f w i t.u.u.i.3.q.a p ~ K.K.K.E E V T _ Y._ T.` ` x ` ].&X$X&X",
"j.j.m.m.h.h.h.h.F F F F Q x R #.$.! %.%.B.%.%.%.Q I G ! H ! ! U L U K H h.h.h.h.F F F F H E H E E G V G #.X.#.o.#.$.X.&.m.j.m.m.",
"H K K P ! O.O.U I G F H L S S L G G D D K J F J D G D L I I O.U O.g.U ! g.g.g.U L L K P G G v v G G G G J o.J L O.%.+.O.I H G I ",
"U g.U O.$.$.L U G G G H D K P J L L L J K J K J L G E Y E U P P I $.! H I G I I G J o.L J L P D H G G G L o.L L L o.O.%.I H U ! ",
"! j.g.U $.Q Q ! Q G H H H H U U L L L I U U U U G L G G ! j.U j.I ! ! ! I ! ! ! Q L o.o.P G I G I H G G I L L I ! I ! %.H ! j.g.",
"&X;X=X%X[. XM. X'. XN.V.C.V.V.N.[.{.'.{.OXOX4XOXoX$X%X$XXXXXXXoX.XC.V.|.C.{.[.[.'.{.N.N.m.P U ! oXOXOXOX|.V.V. X'._.].{.'.'.V.V.",
"*X;X&X=X[. XM.'. X X|..X X X X X X'.'.[.OX1X1X*X&X%X%X&X:XXXOXOXV.V._.|.[.{.'.|.'. XA.C.j.G I ! OX@X*XOX XM.C.N.k.).'.'.'.|..X.X",
"*X&X&X=X[..X[.{.[.[.N. X X X[.[..X{.{.$X&X*X5X=X%X%X%X%X&X:X%XoX.X.X|.|.[. X[.[.'.{.$XN.j.H ! %.;X;XvX-X$XN.A.A..X[.{.].'.'.V.C.",
"*X*X;X,XM.M.N.{.].N.].N.{.N.N.N.A.N.N.{.$X%X%X$X$X$X$X$X$X$X%X#X].].].].].].].].N.N.].N.! L Q $.cXnXcXcXcXA.yXyX#X{.{.N.oX.X XC.",
"V.V.[.M.w = & : : : : : = q 9 8 q 0 0 d d f q w 8 8 9 9 q : : : - ; < ; : = q q q 8 : ; ; + + , *.-.*.*.*.X.^ X.d & 0 q M.'.'.M.",
".X|..XN.9 o o o . o . . o . o o O O @ + + + - o # o # o o . . $ - - $ + o % o # o # # o + , + , *.0XqXwX{ { *.*.- O # 8 [.[.{.{.",
"|.M.[.{.& o . + - $ - - % o O % X X   X         O & O & % - - , - * - @ % O @ @ + + . - + + - , { qXqXqXwX] ] ^ < @ O 8 .X'.].'.",
"XXM.[.[.q o % $ - - $ + - - % - S ....X.X.X.X.S O O O O % - 2 + % $ - ; & 9 q 0 ; & = % + + % , { qXqXqXwX[ ] { , + @ 0 $X[.{.{.",
"*XXX;X%Xq o o - < , < < - ; . ..IXIXGXIXJXJXIXIXX.o f ; 0 d d d : ; & q _.+X`._.k.d.W W & % % , 9XqXqXqX' ] ] { 1 , < 0 .XM.{..X",
"&XoX;X%Xq o O ; ; ; ; < ; : o J DXKXPXPXLXLXLXHXX.$ 1 1 < f d d ; & & 9 `.`.`./.d.H.H.W = o @ , | qXeX9X] ] ] ( 1 - ; : {.[.M.[.",
"5X;X5X:X9 # # o 0 @ 0 ; ; ; # ..IXFXJXGXHXHXPXIX( $ > , < d d 0 0 & 8 9 _.`.`./.~.Z Z W & # k 2 { 9X9X9X[ ] ] { > $ $ : ].{..X.X",
"&X%X%X$Xe O 4 4 8 4 0 0 8 0 O J GXPXJXJXKXLXLXJX|  .' ( < d d 0 & = 9 9 _.+X`.`._.J.).k.8 4 4 < *.9X0X[ [ ] ] ]  .> > z &.N.C.N.",
"j.j.j.B.i i p p i u i i e e 4 o.DXPXJXFXKXKXLXJXfXaXaXsX( d q q E m E ~ mXmXmXmX#X].cXA.i 4 7 j *.9XrX9X] ] ] ' | _ _ ` K.~ m.g.",
"H D g.g.i v 0.v p y p a u e 4 K DXPXJXFXDXKXHXSXxXjXzXfX( 1 : l T M T ~ vXMXbXbXcXcXyXyXj 7 6 j *.9XqXrX] ] ] ] Q.W.Y._ #.R H K ",
"! U H g.p 0.y t 8.t y a r r 4 K HXLXJXJXHXHXHXJXjXhXhXpX( , * l T T M ~ vXbXbXbXcXdXyXyXj 5 3.s *.qXqXqXwX] eX' } } R.Y._ Q O.g.",
"U j.g.g.p s.0.9.8.t y t r r 3 f.AXDXDXDXAXZXZXIXjXhXhXjX( , : l T N M T vXbXvXBXcX#XcXyXj ,.2.s rXqXqXqXwX] wX' Q.R.R.Y.R Q m.g.",
"=X&X=X<Xs.9.9.9.8.8.r y r r r 7 l.n.n.n.z.z.x.;.gXhXhXpX> : < ; T M M T vXMXbXbXdXdXcXyXj ,.1.s *.qXqXqXwX' wX' } } W.Y.>X;X%X*X",
",XOX4X<Xs.9.9.9.8.y r y r r r t <.<.2.2.1.:.6 / gXkXhXhX> ; < 1 E C M ~ mXMXMXbXdXdXyXyXp 5 >.s *.qXqXqX' ] ' ' } R.W.Y.>X*X*X*X",
",XOX4X<Xs.y 9.9.9.y t p r r 3 t 7.7.2.2.1.5 6 h gXhXhXpX> % $ * Y M M ~ vXbXbXbXcXdXcXyXt.3.1.t.*.qXrXqX[ ' ' ' } E.R.Y.>X*X*X4X",
"@XOX1XXXs.y 9.9.y y t y r r 3 q.n.n.n.n.b.b.b.;.gXhXhXpXz = l * Y E M J.mXmXmXvX#XdX#XC.j 1.2.t.*.0XrXqX] ] ] ' Q.E.R.| >X=X*X1X",
"oX+X<X<Xs.y 9.s.t y y y r r 3 F VXVXCXDXDXCXUXSXlXhXkXpX` G T N l = * l _.`._.+XJ.F.).l.3.:.1.s *.rX0X0X[ [ wX' E.E.R.W.>X&X3X<X",
"oX+X+XXXs.y 9.9.t t i r r r 3 f.VXDXCXGXFXJXJXSXlXkXkXjX@.E L.M * * * c `./././.H.Z ~.d.t :.2.s *.{ rX0X{ { wX' aXE.E.Y.>X&XXX<X",
"OX+XXXXXs.9.9.9.y y p t r r 3 f.DXDXGXJXJXJXSXSXlXkXkXpX#.V C b = & * l _./././.~.~.d.l.q.3.1.s *.9XrX0X[ ] wX' E.E.E.I.>XoX<X<X",
"OXXX<X<Xs.y 9.9.y y p r r u 4 f.KXPXJXFXJXJXSXSXlXkXkXpX@.b B B = = % c `.`././.~.~.^.d.3.1.1.s *.9XqX9XwX] wX' aXE.E.T.>XOXXX<X",
"4X4X<X3X0.s.9.9.y r i r r y 4 f.DXLXLXKXLXPXJXSXlXhXhXpXY.N M b l & : c `./.(./.~.~.d.d.4.1.1.s *.wXqXwX0X] wX[ } E.U.W.>X@XOX1X",
"OX4X1X3Xs.0.9.0.y y p y r i 4 b.HXLXKXKXLXLXPXSXzXjXhXpXY.T P.M c q q c `./.(.(.~.~.^.d.9.:.6 / *.0X0X0X{ { ] [ aXE.I.Y.>X,XOX8X",
"7X5X4X3Xs.p y p r r v r r e 4 K DXPXGXGXKXLXPXSXxXjXpXpXY.N N M q ; = c _./.(.(.~.~.d.d.9.7 7 j *.qXrX0X{ { { { } T.) Y.>X,X@X*X",
"$X&XXX.Xf.s.p p p i v i i u r K GXIXFXCXDXHXHXSXfXpXpXsX@.R E G w 0 q c k./.(.(.d.d.d.d.p r u h *.{ { *.*.( *.{ @.Y.Y.!.oX,X%X%X",
"j.m.m.m.g.h.H g.h.H H H P U K m.&.&.&.&.B.B.;.-.&.=.=.=.o.G H g.U L G L j.j.j.g.! E j.g.f.p K J ..^ ^ ( #.X.*.X.R x x R Q j.I ! ",
"L L I ! g.g.g.g.j.I ! I j.! m.U J S G G / J J J $.$.&.+.K F f.f.m.! ! Q O.O.g.U $.L O.O.F f.K L S g g A A o.o.o.S S #.$.I H I Q ",
"Q $.U U O.U H I ! H ! Q ! Q m.U U P G G O.o.P I ! %.&.O.P G J P K P G ! O.m.m.U Q o.%.O.H F L J f S f S S G J D G S S L U f.! L ",
"L $.$.L ! I I ! ! L ! Q ! Q B.! F v V G K K D H E ! %.U I I J o.O.U Q ! o.O.U F Q L %.U D D I L w w w w m G I F G V L U f.g.O.$."
};
