/* XPM */
static char *e0cac2fc3222445d8a4189fd5075cdf0[] = {
/* columns rows colors chars-per-pixel */
"64 64 237 2 ",
"   c #5C5C5C",
".  c #555757",
"X  c #4C4F4B",
"o  c #635D5E",
"O  c #5A615E",
"+  c #4D605A",
"@  c #65685F",
"#  c #5D5F63",
"$  c #645F62",
"%  c #5D6463",
"&  c #5B6B6C",
"*  c #5C6768",
"=  c #5A716F",
"-  c #5A6974",
";  c #5A7777",
":  c #4C6D72",
">  c #646463",
",  c #6A6565",
"<  c #646A63",
"1  c #6A6A66",
"2  c #656569",
"3  c #6A656B",
"4  c #656A6C",
"5  c #6C6B6C",
"6  c #736D6D",
"7  c #75696B",
"8  c #6C726D",
"9  c #6C786E",
"0  c #67736A",
"q  c #72736E",
"w  c #7B726F",
"e  c #646B72",
"r  c #6D6D72",
"t  c #656E7B",
"y  c #736E72",
"u  c #7A6E74",
"i  c #756D78",
"p  c #667274",
"a  c #6D7473",
"s  c #6D7A73",
"d  c #66727B",
"f  c #6C747B",
"g  c #6E7A7A",
"h  c #647978",
"j  c #747474",
"k  c #7A7475",
"l  c #747975",
"z  c #7A7B76",
"x  c #757479",
"c  c #7A747A",
"v  c #757A7A",
"b  c #7C7C7C",
"n  c #817C74",
"m  c #82767B",
"M  c #827C7D",
"N  c #86787B",
"B  c #806F79",
"V  c #6F837D",
"C  c #75837B",
"Z  c #7D817D",
"A  c #7B8077",
"S  c #82817D",
"D  c #85837A",
"F  c #5A7B83",
"G  c #667B85",
"H  c #7B7480",
"J  c #7D7D81",
"K  c #7C7E89",
"L  c #757B83",
"P  c #837D82",
"I  c #8A7E84",
"U  c #877C86",
"Y  c #5B8689",
"T  c #5A8F96",
"R  c #529197",
"E  c #4D8B8E",
"W  c #69868A",
"Q  c #768483",
"!  c #7D8283",
"~  c #7E8A83",
"^  c #7C828C",
"/  c #7A8D8D",
"(  c #748789",
")  c #678A94",
"_  c #778D94",
"`  c #679599",
"'  c #789498",
"]  c #71928F",
"[  c #5D9CA5",
"{  c #769AA5",
"}  c #669BA3",
"|  c #7AA6A8",
" . c #75B1AE",
".. c #79B6BA",
"X. c #6EACB3",
"o. c #6AB9C3",
"O. c #7CB9C3",
"+. c #5ADADB",
"@. c #77C5C8",
"#. c #79D6CF",
"$. c #67C9D6",
"%. c #68D6D7",
"&. c #78D7D8",
"*. c #74C8D1",
"=. c #64E4DD",
"-. c #71E5DE",
";. c #5CD8E0",
":. c #68DDE5",
">. c #76DDE7",
",. c #59E8EE",
"<. c #5CECF1",
"1. c #6BEDED",
"2. c #6AE6E9",
"3. c #74E3E4",
"4. c #7AE3E3",
"5. c #73E4EB",
"6. c #7CE4EB",
"7. c #7AEAEC",
"8. c #77E9E8",
"9. c #64ECF4",
"0. c #6BEBF4",
"q. c #69EAF7",
"w. c #74EDF3",
"e. c #78ECF3",
"r. c #6CF2F6",
"t. c #72F0F0",
"y. c #838283",
"u. c #898485",
"i. c #858985",
"p. c #8B8A86",
"a. c #858589",
"s. c #8A858A",
"d. c #858B8B",
"f. c #8C8D8D",
"g. c #928D8C",
"h. c #968B8C",
"j. c #85918D",
"k. c #8C928D",
"l. c #8A9187",
"z. c #92918D",
"x. c #848D91",
"c. c #8E8D92",
"v. c #858692",
"b. c #928E92",
"n. c #958C96",
"m. c #869492",
"M. c #8C9292",
"N. c #8D939B",
"B. c #87989D",
"V. c #929292",
"C. c #999395",
"Z. c #94959B",
"A. c #9A9A9A",
"S. c #979996",
"D. c #9AA39E",
"F. c #989EA1",
"G. c #839CA2",
"H. c #89A5A9",
"J. c #84B7B8",
"K. c #94BABC",
"L. c #8DA9AF",
"P. c #ABACAD",
"I. c #A5A7A9",
"U. c #A9ABB3",
"Y. c #A7B7B9",
"T. c #BBBBBC",
"R. c #B7B7B7",
"E. c #A8B5AE",
"W. c #C1BDBE",
"Q. c #80C3BC",
"!. c #8ABDC4",
"~. c #98BFC4",
"^. c #A9BEC0",
"/. c #B5BFC1",
"(. c #85C9CA",
"). c #97C2CB",
"_. c #86CDD4",
"`. c #82DBDD",
"'. c #8BD7D8",
"]. c #98D5D9",
"[. c #94CFD6",
"{. c #B6C7C7",
"}. c #A6D3D7",
"|. c #B3CDCC",
" X c #89E2DD",
".X c #86DEE3",
"XX c #85E6E9",
"oX c #97E8EB",
"OX c #89ECF2",
"+X c #9DEDF3",
"@X c #92EEF4",
"#X c #87F2F6",
"$X c #9DF2F5",
"%X c #98F7F9",
"&X c #83F0EB",
"*X c #A6E7EB",
"=X c #A5FEFD",
"-X c #ACFCFF",
";X c #A7F3F7",
":X c #B4F6FC",
">X c #B3FBFE",
",X c #BCFBFE",
"<X c #BBF4F7",
"1X c #B3F0F1",
"2X c #C6C8C8",
"3X c #CDD8D5",
"4X c #DCDBDC",
"5X c #D6D7D5",
"6X c #D5CED0",
"7X c #E2DBDA",
"8X c #DCE2DA",
"9X c #C3E2DD",
"0X c #C8EAEB",
"qX c #D9E7E8",
"wX c #C6F1EE",
"eX c #D7EBF3",
"rX c #C3F5FB",
"tX c #C4FBFE",
"yX c #CBFDFE",
"uX c #C8F4F5",
"iX c #D4FCFF",
"pX c #DBFEFF",
"aX c #D5F5F7",
"sX c #CEEFF4",
"dX c #E3E3E4",
"fX c #EBEBEC",
"gX c #E7ECEF",
"hX c #E4FCFC",
"jX c #EBFEFE",
"kX c #E8F6F5",
"lX c #F3F4F4",
"zX c #FBF5FB",
"xX c #F4FEFE",
"cX c #FDFEFE",
"vX c #F8FBF7",
"bX c #F1EEF0",
"nX c #E2E6D8",
/* pixels */
"b Z b j j j j j j v j j j j z j j j j j y.y.x y.z.M.g.c.V.f.V.z.s < @ , l m.z.g.s.I b ! b l s s j j v j j k j f f l s l 8 a M P ",
"y.y.b j j j y j j j r j j v j x j j j j b y.b a.M.g.g.k.b.k.f.k.9 < 3 , v M.V.V.s.P b b M j 9 8 j a q j w j j j g j 8 8 a b P U ",
"b b b b b b y.p.f.f.p.f.f.f.b f.f.f.f.p.f.f.f.p.g.f.f.c.f.f.f.f.b y i y J N.f.b.n.b.f.f.g.g.p.f.d.j 5 , , w S b A A S M M M j 8 ",
"! y.b P ! b y.f.f.g.V.V.f.V.f.S.f.f.c.f.S.f.V.V.M.M.z.V.V.b.V.V.P j P i ! Z.v.c.b.c.c.c.b.h.g.z.V.8 > , $ k D z z n M N M J l l ",
"y.M P ! b b y.f.f.f.b.f.f.c.V.p.V.V.V.f.S.f.f.f.f.g.f.f.c.f.f.f.b r y j ! Z.c.V.V.b.M.g.h.h.g.k.V.j 1 j , j y.y.P u.I I M M j s ",
"! b Z b b y.y.b.V.k.V.f.V.g.f.V.y.a.p.d.y.V.V.V.V.V.V.V.V.V.V.V.b w j z b k.f.b.k.V.V.V.b.b.M.V.f.5 X X . p G F G K i I I b a a ",
"S y.b j j 5 j b b b b S ! a.j R.dX7X4X2Xb y.b b b b b b b b b b u.D D D D n M S b S i.! y.y.a.^ a.2X5X5X3X}.@.%.$.O.L y.S b v L ",
"J b j , > , 4 8 j j j j 5 j   5XcXcXcX4X  j j j j j j j j j j q p.z.h.z.D q w 1 l C C Z b P ! J x fXcXxXjXrX%.9.q.&.G y.b A J ^ ",
"b y.b 1 4 2 1 j y b j j 8 b > 2XcXvXcX4X  j l y j b l 5 Z c j j s.V.c.f.s.k 7 k 9 C Z Z S P M P c dXvXvXjX1X:.,.<.$.F P J S v a.",
"y.y.j 4 > > 1 r j 5 j k j r , 4XcXcXcX7X> b j b j j j j $ # %   Q ' ' ' K i j j z C Z S M I y.y.m lXvXkXxXwX%.7.e.*.W P S y.J K ",
"J b b b b c b b b j b b z b a P.4X5X6XT., j 2 5 x z l P R.T.2X{.(...@.!.{ G L L b z z N k k z z m 2X6X3X3X|.J...J.H.L b c b M P ",
"b b y.V.z.V.f.y.y.! y.b b y.b b 5 4 j 5 % 1 5 r y.y.b P vXcXcXjX=X:.>.XX!.G K P b j k k w w j j 7 ,   > . * = = = p e j 6 j M P ",
"y.b y.V.z.V.f.y.Z b y.J P ! y.b y.b p.j 1 , 2 1 b b b y.fXcXcXjX%X;.1.-.J.W ^ P J j j k w k l j b c j b b j s g s l v c m c M b ",
"y.b y.f.f.f.f.b b b y.b b b y.y.y.y.! x 4 4 , 5 ! P Z y.lXcXcXjX$X:.7.XXJ.G K P v j w w 6 6 a a 5 j y y c y 5 s a r q 5 6 j b i.",
"y.b y.V.V.V.k.y.y.y.a.b b J b j b b b x 1 5 5 5 c b M y.dXdXfXeX}.@.(.(.L.v b Z s C C z b c v v C v b k c P U H J J J b b v j b ",
"P M y.k.f.b.V.f.c.g.p.b j j q b j r b j j a z j j k j j 1 1 q 4 ; ; V : l r k 0 C j.l.k.b.M.M.N.M.k.M.V.n.v.n.n.n.N.f.c.M.d.5 < ",
"M b y.b.V.f.f.V.d.k.V.l j j j j l x r x l 8 z w c u m u c 8 b j s h g f v j j q A i.z.z.l.S./ j.f.V.k.k.j.V.k.b.c.c.N.f.n.s., 1 ",
"P M y.c.V.f.f.M.S.V.f.v j j c j e v x j 8 0 q 1 f f x a j 8 j j s j 8 y j r x j S z.p.s.i.M.j.m.d.M.f.V.j.k.k.V.c.V.M.c.V.s.5 , ",
"Z M y.p.f.f.f.f.u.f.f.b j j v q c c 6 c i.A A / Y E E W g s j l j x i i c y b r j A.C.A.A.Z.N.B.F.m.f.C.d.i.p.f.f.f.f.c.b.y.6 1 ",
"j j j c b k b b S a.y.b b P b P y.M y R.vXvXlXaX#.>.&.*.) a 8 j x y.U U U 3 y . I.lXzXzXzXeXeXeX0XZ.r c j b z l c x 5 r y 5 b b ",
"j j j j y 6 j M y.k b S ! y.j P P u.y T.cXcXcXpX>.0.w..X) f j s J a.U U k , 6 . A.cXcXxXxXeXaXuXiXH.3 i i j w q j 6 > < , 3 ! ! ",
"j j j j j j c y.M b y.a.b ! Z ! P a.j T.xXjXxXiX>.,.9.>.` G L s v b M P c , 5 . S.xXxXjXhXaXtXrXwX| r m k u q l k 6 4 5 4 5 b ! ",
"a a j j j j k b M a.j z j l l s g s p Y.jXjXjXyX>.q.q.:.R : : ; Q C Z S k , 1 X D.vXxXjXjXrX,X:X,XH.& i u c w 8 w 6 > $ , 5 b ! ",
"d.d.d.p.s.u.u.y.M b y.6XfXqXqX8X2X9X|.9XwXwX<X>X6.0.0.5.>.*.*.(.' C Z Z b z A 8 D.kXaXpXrXoXoX@XoX .^ b.s.s.i.i.p.u.p.y.d.! j 5 ",
"V.c.M.V.c.b.c.P P b b fXcXcXcXjXuXuXtX<X*XoX;X@Xt.r.r.r.2.1.1.6. .s Q ! J J a.g D.aXuX<X>X>.:.5.`. .B.n.z.k.k.l.z.z.z.g.k.f.> 2 ",
"c.f.f.f.f.b.b.y.J a.b fXxXcXxXkXwX,X,X>X+X+X$X%Xe.w.r.0.9.,.,.>.| h ! y.J J ! d H.sXrX,X-XXX2.2.`. ._ N.z.S.k.j.g.p.f.z.V.f.3 3 ",
"V.V.V.V.V.S.p.! J J x gXcXxXcXkXaXyXtX,X:X;X;X;XOX#XOXXX5.w.q.XX| C y.P U P a.g L.aXiXtX>X6.5.1.'.J./ b.M.k.m.l.z.V.b.V.V.s.5 , ",
"a.a.a.a.a.a.a.a.J y.J T.2X2X2X{.^.^.).).!.!.~.Q.......O.O.o.o.O.' 9 z z k y x a j.^.^.).)...o... .] ( d.a.Z Z ! D y.u.y.s.y.k j ",
"J P J b y.J J v ! ! v 4 #   >   % % > 2 % * < % & & & & & - - - 8 0 z k 5 $ @ $ O 5 $ $ e - - : ; ; a j 8 8 8 j y x b b P P M M ",
"P M J y.y.! ! ~ ! v d.a v x b b z k m m j l n w j x c c k k c k l l j x j 5 q 8 q q w B m c J b a l c j j l j j j c y.! P b ! b ",
"y.c c c j a a p v s v l b j r j 8 8 u u 0 9 q w x x x x w w q s 1 2 % > % O . + * 0 w k 7 7 y y k k u 6 w 8 6 y y x ^ J P M y.b ",
"P J V.U.U.R.U.H.| H.| L e y j c Z b N m 9 9 9 j c L L x l l w w A.P.U.U.H.` ` } ] V C M z m D c m N m m M z b P J J a.y.u.y.p.C ",
"^ a P.cXzXcXjX].&.4..X` - 3 > y.S.f.C.u.j l j j b a.J J b b S q nXcXcXxX,X>.4.XX[._ N.z.g.g.f.V.n.h.h.h.h.z.h.z.c.V.g.b.n.b.k.m.",
"a.l P.cXcXxXpX X2.2.>.R - i > b M.p.V.y.j l j x b b b y.b a.y.j nXvXzXjX=X;.9.5._.} ' c.h.h.f.f.b.g.h.z.g.g.z.k.d.N.b.b.C.g.j.j.",
"y.5 I.cXxXjXiX X=.=.6.R # e > D S.f.S.y.j j j z y.y.b y.z b b 1 7XcXcXjX=X+.0.3._.{ ' _ M.z.k.k.M.m.k.k.M.k.k.k.m.N.k.g.h.z.k.M.",
"M k P.lXkXhXiX'.#.-._.) - 3 @ A f.s.f.b j j j j b b b b V.S.S.f.nXxXjXhX=X=.2.5.*.X.X.| H./ f.k.d.m.m.j.d.k.d.k.d.M.M.f.g.z.f.z.",
"S M z b M b L G V Y G G x j 8 l l j v j j j j x j j j y.fXcXcXxXaXyXyXtX%X8.e.e.#X5.5.4.(.) f k x x c c i k k j j Z M.f.M.f.M M ",
"b y.b q u 6 y y p f i c c j s 9 8 j j j j j j j j j j j lXcXcXxXiX<XrX>X$X&Xe.e.q.,.<.0.&.Y p c j k c i i k j j 6 b f.k.V.f.M N ",
"M m M w w w b c x x c c y 6 w j j j j j j j j j j j j j lXcXcXxXpXrXrX,X=XXXe.e.q.<.<.1..XY f b j j j c c j j j j A M.k.M.h.N D ",
"u.P M 6 z j 5 j k r x y j z q 7 6 j 5 j j j j j j a j b fXcXcXcXkXsXuXrX1X XoX@XXX5.2.>.'.W d j j j j x c j j q q z z.b.c.b.M M ",
"J y.b v Z b A d.f.f.i.v g l $ W.lXfXlX2Xp.f.p.c.p.d.f.b.V.Z.S.Z.v.v.v./ ] ' ` ' { | X.H.H.x.d.i.z.p.v.n.n.J z z A A S y.a.J y.b ",
"J ! ! b ! C y.z.k.z.j.C 0 l $ 7XcXcXcXdXy.V.g.M.V.z.f.y.j 5 , > $ $   % < e e r L N.v.v.b.f.V.k.l.g.v.U Z.p.S D A D y.P J J ! v ",
"J J J M b m y.z.z.f.f.v j P . 7XcXvXzX7Xb S.V.a.f.b.S.f.b j b b 1 1 , < a l v g v N.x.Z.V.p.V.z.h.C.F.N.F.U M N D n S b K J ! ( ",
"! J y.P I M u.f.z.k.M.v r b $ 6XcXcXcXdXy.V.V.V.M.b.V.p.z r q j 1 1 , 1 5 a a p C d.V.V.u.f.D b S i.) ` _ _ J P n n M M U y.! C ",
"a s j b P I P u.i.i.p.b v b j I.T.R.T.I.y.y.y.y.y.y.p.y.b b b b M D u.P u.y.a.a.x.a.s.m s.4XdXqXqX}.@.@._.O.K a.p.D f.s.v.s.a 8 ",
"> % 5 b M M N M A b b b u.! v a     > 1 b y.! y.b b J ! b J ! b f.V.V.V.C.b.V.V.u.M u.m C.zXcXxXhX*X-.8.XX*._ c.z.z.c.c.n.s.5 < ",
"1 < j M y.P P J Z y.M S M b ~ g v k b b y.b z b y.b b ! Z P S b m.m.V.z.g.z.z.k.b.I y.M c.lXvXxXjX*X3.9.5.o._ Z.g.g.V.c.n.f.< @ ",
"@ $ q b P b P y.Z Z b P M P ! v j j j l Z b Z y.S b P y.M Z ! C Q C C y.D y.i.i.J f a p / jXxXjXpX+X:.<.q.$.T ' / j.c.b.b.f.< 1 ",
"y y j c b Z ! b l S j M M k b x y k q l C 9 C l b k b b J x ! a E.2X2X{.{.^.Y.|.^.K.K.K.!.<XtXrX>X@X5.q.q.;.$.o.*.| v.U s.J j 8 ",
"P P b x j a a 5 z j j j j y j j i i j 8 9 0 l q w j y j j a j * 8XcXxXxXxXeXiXuXiX1X<X:X:X+X+XOX#X7.e.q.r.0.q.0.7.O.t 7 y v S y.",
"P y.P x j j j l j 6 c c x b x c H H c c z 6 j 8 j a j j x c u $ 4XcXkXxXaX0XuXrX<X*X:X:X-X+XoXOX&X7.0.0.9.9.2.2.-.@.p P a s b b ",
"P J b j 5 a j j j j r 1 $ 2 5 & G - t p y u b j a s x x j j k $ 7XcXcXjXjXwXyX<X,X>X=X;X+X+X+X+X%X&X6.e.e.5.2.3.XXQ.& y a l a.Z ",
"M y.b b b C z j j k y Z.F.F.I.B.} [ } ` G c c j j b c v s j k 7 6XbXfXgXqXkXsXyX:X$X%X%X$XoX].}.].'._._..X_._._.'.J.c m c v P P ",
"b b y.f.k.z.p.b y j x dXcXxXxX0X#.-. XQ.L K J M b b M M s s z 6 u 7 i   {.cXxXpXtX`.4.>.`.E F F Y W ) ) G ) Y Y V W b.h.S.f.f.C.",
"Z b i.z.g.z.p.j c k 5 fXcXxXxXwX%.1.t.@.F ^ J U M P N D 8 0 j a a v M $ W.cXxXhXtX#.3.3.`.E F J 5 L U K K K ^ ( V ] z.h.V.M.c.c.",
"Z b y.k.p.V.f.j j k 5 gXcXxXxXwX%.1.-.@.F _ J y.M N m u.s s l j j g q   2XcXxXjXyX`.4.-.#.T f j c b P U K K J ( V ~ z.f.f.j.c.b.",
"b y.S f.V.f.y.b k k y dXcXjXxX0X_.`.`...W ! b S S N N P v a j j j s C @ T.vXxXxXiX[.'..X_.Y f v v b M D y.M b Z V C p.z.g.f.f.b.",
"Z A Z y.y.y.D b b M b f.d.x.v.( Y T ` W p b j z j j m k a a j j c b Z q i.S.V.M.G.{ | { | _ k.u.i.! b S M z k q 9 A z k j b P U ",
"b y.b Z b b b S y.M y.5 4 e e p G - ; h a k q 8 j q k k a j c u N M b i.z z k c K v.B.' m.N.V.k.k.Z C M M w w 8 9 l k j k c N I ",
"b y.! y.S A S S P M P v J f v v L x x j j k j j l q k c a x j k m D z D z D u.P s.c.M.N.c.d.u.z.k.~ z A D z w j q q k w j c m N ",
"M b J Z b ! b b b y.b k x r j a x J x s j 6 q q a j j y 8 a y q z Z ! b b b b M y.M.M.j.N.c.g.b.k.S C S A z j j j j j a j v b Z ",
"c c j x l x v j k b c j j j j x 2 5 4 j i.p.p.d.p.a.p.a.y.S M b v v ! b ! S b y.y.Z i.Z i.b M b S z z z l j j x x x J L b b Z Z ",
"i y j j s j j j j 5 j j k k j e 5 3 , c b.g.b.f.M.c.M.c.D b M n y.Z J J U y.b M S z z A z w i u u j j q j j j c y b J y.y.Z Z C ",
"c x x x l j a s w j c k y y b 5 3 , , k C.p.g.V.c.M.N.x.y.b S M S y.P u.c U y.z D A D D k k c u k k j j j j c i i L K J J b Z Z "
};
