/* XPM */
static char *afd8f3b023a74cd7d9c1dfad28c8dd68[] = {
/* columns rows colors chars-per-pixel */
"64 64 216 2 ",
"   c #353535",
".  c #3D3E3D",
"X  c #364E1B",
"o  c #3B4E1B",
"O  c #295015",
"+  c #3F5314",
"@  c #39551B",
"#  c #3B531C",
"$  c #2D4726",
"%  c #354D24",
"&  c #3D4F25",
"*  c #334C2B",
"=  c #394D2E",
"-  c #3D5324",
";  c #3C5A25",
":  c #365528",
">  c #3D532B",
",  c #345E2D",
"<  c #3D5B2C",
"1  c #374D33",
"2  c #394D32",
"3  c #3F403F",
"4  c #355435",
"5  c #3A5333",
"6  c #355C33",
"7  c #3C5A34",
"8  c #375738",
"9  c #3C543B",
"0  c #3B5C3A",
"q  c #34602C",
"w  c #3C622E",
"e  c #33732E",
"r  c #366135",
"t  c #3B6135",
"y  c #3B6937",
"u  c #366138",
"i  c #3B6339",
"p  c #3C6A38",
"a  c #3D7134",
"s  c #3D733A",
"d  c #425715",
"f  c #445916",
"g  c #41541E",
"h  c #445A1A",
"j  c #4A5E1E",
"k  c #415523",
"l  c #445C25",
"z  c #495D24",
"x  c #41552B",
"c  c #455D2C",
"v  c #4A5E2A",
"b  c #435532",
"n  c #485731",
"m  c #435D33",
"M  c #4C5C32",
"N  c #41553A",
"B  c #455A3A",
"V  c #4B5B3B",
"C  c #505F30",
"Z  c #4B6123",
"A  c #44622E",
"S  c #4B622C",
"D  c #496B2E",
"F  c #50632E",
"G  c #516A2E",
"H  c #48732B",
"J  c #446232",
"K  c #4C6432",
"L  c #456B34",
"P  c #4B6C34",
"I  c #44623E",
"U  c #4B623C",
"Y  c #456D3A",
"T  c #4A6D3A",
"R  c #516432",
"E  c #536933",
"W  c #596F35",
"Q  c #52643B",
"!  c #536D3C",
"~  c #447235",
"^  c #4D7334",
"/  c #4B7B35",
"(  c #447239",
")  c #4B743A",
"_  c #4B793B",
"`  c #547436",
"'  c #587135",
"]  c #507836",
"[  c #53763B",
"{  c #5B733B",
"}  c #54793C",
"|  c #587A3E",
" . c #454644",
".. c #4A4D46",
"X. c #484748",
"o. c #4C4D4C",
"O. c #485844",
"+. c #4E534C",
"@. c #515F43",
"#. c #51544E",
"$. c #515B4D",
"%. c #4F4F50",
"&. c #504F50",
"*. c #4F5250",
"=. c #525252",
"-. c #575A55",
";. c #565558",
":. c #5B5B5C",
">. c #456643",
",. c #4C6543",
"<. c #466E41",
"1. c #4C6A44",
"2. c #4D6349",
"3. c #4E6A4A",
"4. c #536344",
"5. c #596644",
"6. c #556B44",
"7. c #5B6B45",
"8. c #53634B",
"9. c #566B49",
"0. c #5B6B4A",
"q. c #4C7243",
"w. c #4A7747",
"e. c #4B7649",
"r. c #537243",
"t. c #597645",
"y. c #567B42",
"u. c #597A44",
"i. c #55734B",
"p. c #5A734C",
"a. c #527B4A",
"s. c #5B7B4B",
"d. c #576855",
"f. c #5E645E",
"g. c #557451",
"h. c #597456",
"j. c #5A7A53",
"k. c #606E4C",
"l. c #62704C",
"z. c #667C4E",
"x. c #61645E",
"c. c #677A54",
"v. c #697C51",
"b. c #656564",
"n. c #656964",
"m. c #696A66",
"M. c #686768",
"N. c #676C69",
"B. c #6A6A6A",
"V. c #706F6F",
"C. c #677864",
"Z. c #6D726B",
"A. c #71756D",
"S. c #72796E",
"D. c #747474",
"F. c #767A74",
"G. c #797C76",
"H. c #78777A",
"J. c #777978",
"K. c #7C7C7C",
"L. c #807F7E",
"P. c #42823A",
"I. c #4D813E",
"U. c #428C3E",
"Y. c #438740",
"T. c #458C42",
"R. c #4D8B49",
"E. c #52844A",
"W. c #5E8855",
"Q. c #63804D",
"!. c #658253",
"~. c #67875B",
"^. c #7B8277",
"/. c #7E817D",
"(. c #80837F",
"). c #7F7F80",
"_. c #807F81",
"`. c #7F8180",
"'. c #828382",
"]. c #858985",
"[. c #898A86",
"{. c #888788",
"}. c #8C8C8B",
"|. c #908E8F",
" X c #8E938D",
".X c #91938E",
"XX c #8F8F90",
"oX c #908F90",
"OX c #939392",
"+X c #959A94",
"@X c #999D95",
"#X c #989798",
"$X c #9B9C9B",
"%X c #9EA497",
"&X c #9EA39C",
"*X c #A1A49E",
"=X c #A09EA0",
"-X c #A4A4A4",
";X c #A5AAA4",
":X c #A9ACA7",
">X c #A8A7A8",
",X c #A6ABA8",
"<X c #ACACAC",
"1X c #A9B0A7",
"2X c #AEB1AC",
"3X c #B0B1AE",
"4X c #AEAFB0",
"5X c #AFB0B0",
"6X c #B3B3B3",
"7X c #B5B9B4",
"8X c #B9BCB7",
"9X c #B8B7B8",
"0X c #BBBBBB",
"qX c #BDC1BD",
"wX c #C3C3C3",
"eX c #CAC9CA",
/* pixels */
"<X<X<X<X4X<X<X<X<X<X4X>X-X=X-X=XOX|..X|.'.(.'.G.F v C z v v z C M.M.x.D.>X<X<X4X<X<X<X<X<X<X<X>X'.'.'.K.B.B.b.D.<X<X6X>X|.}.|.}.",
"<X<X<X5X<X<X<X4X3X<X<X<X-X=X-X=XOX|.oX|.'.L.'.G.F z C C v v z C b.M.b.D.<X4X<X<X4X<X<X4X<X<X4X;X{.'.'.K.b.B.b.D.<X5X5X<X}.}.|.}.",
"4X<X<X4X<X<X<X<X4X<X3X<X-X-X-X=XOXOXOX|.'.(.(.G.v z z z z z z R b.m.x.A.<X3X<X<X<X<X<X4X4X<X5X>X'.'.'.K.B.b.b.D.4X6X5X<X}.}.}.}.",
"<X4X<X<X4X<X<X<X-X-X-X-X=X$X=X#X}.[.[.{.K.G.G.A.F F v F C S Z R x.b.x.Z.-X>X>X>X,X>X>X>X>X>X>X-X'.'.'.(.x.b.b.Z.>X;X<X=XOX|.|.OX",
"<X4X<X<X<X<X4X-XD.V.V.D.(.'.'.H.o.o.o...C v v C { { { { { W { ' v c z Q L._.'.'.[.{.{.{.'.'.(.'.|.}. X'.x x > B D.D.D.H.#X#X$X#X",
"<X<X<X<X<X<X<X-XV.D.B.V.L.L.(.K.o.X.X...Z v z v W { { { { { { { c z c U L.L.L.'.{.{.].].K._.L.'.|.}.}.].x < - n Z.D.D.H.#X#X#X$X",
"4X4X4X3X4X<X3X>XV.V.V.D.'.'.'.K.o...o...z v z v W W W W { { { { Z v l Q (.(.'.'.{.'.{.{.'.'.'.'..X}.OX].x > - B D.F.D.J.#X$X@X#X",
"*X*X*X*X>X>X:X=XD.D.V.D.G.G.G.A.........v C z F v.v.v.z.{ { { ' c M c Q F.G.K.K.[.{.{.{.K._.'.(.{.].[.^.< > > m Z.Z.Z.S.+X+X#X#X",
"z C j Q L.'._.'.).).'.F.g g k g z v z v { { W v.*X:X:X*XE P G Q ..o.o...& k X V [.{.}.{._._.'.H.x k > l J c J c J m < ,.'.].'.'.",
"v z z V L.'.L.L._._.'.G.k g g k C C v C { { W v.:X<X4X*XE E E Q +.o.o.+.& k o V {.[.}.{.L.L.'.G.> > - > m J J t J J A ,.'.'.[.'.",
"v v z Q '.'.(.'.'.'.'.G.k g g k h h d z { { { v.1X4X4X*XG G G K o.&.o.+.& & X V }.}.}.}._.'.[.K.x > - > ; ; ; ; , < @ I '.{.'.{.",
"v v z R F.G.K.K.F.G.G.S.k g g k 5.k.k.{ W { W v.>X:X>X*X7.! 6.9.%...o...& k o V /.(.(.(.K.K.K.A.> > > < 9.9.9.9.9.9.i.i.^././.^.",
"C C F C k z k z g k g k z v f k.:X3X3X;XK S Z ! .XOXOX|.K././.J.=.=.=.#.c c c c x > x b =.;.;.#.m J ; 6.&X*X=X-X2X2X6X*Xt J t J ",
"C F F C v v C k k g g g v C f k.3X6X7X:XE S c 6.}.OX.X|.).).'.K.=.%.%.+.c c m m x - - 5 =.#.=.$.c J ; 9.-X>X-X,X6X6X7X;Xw t t t ",
"j Z j j d d d + g d d g z z f k.3X6X9X;Xz l h Q  XOXOX.X'.'.'.K.=.=.&.#.c c c l # @ X & =.;.;.#.c m ; 9.;X>X>X,X6X6X6X;Xw < t w ",
"l.l.l.k.5.5.5.5.n n n n v C f k.<X6X6X;X7.Q 5.k.}.oXOX}.K.K.).D.#.+.#.O.K A J c @.@.@.4.$.$.-.$.w J ; 2.$X-X$X-X5X4X6X;XU I ,.I ",
"<X<X<X<X:X>X<X=XM.n.M.x.v v f k.>X<X<X>X[.'.'.'.'.{.{.).=.=.;.$.c c c A [ [ ^ s.+X#X@X X[ ) ) ) 7 m < I K.'.K.'.>X>X<X=XM.b.M.b.",
"<X4X3X<X<X<X<X>XB.b.M.x.v C d k.>X<X<X>X'.{.{.'.[.'.{.`.-.=.=.#.M c c J [ | ] z.+X#X$X X) _ _ ) A m l I K.L.K.{.-X-X;X$Xm.b.M.M.",
"3X4X4X4X<X<X4X>XB.M.M.x.z v d k.<X<X4X<X'.'.'.'.{.'.{.'.;.-.=.$.c c c c ^ ^ H s.@X$X$X.X} _ } _ 7 m ; >.K.L.L.'.-X>X>X*XB.M.B.m.",
":X>X>X>X>X>X:X=XB.m.B.n.v S h 5.*X*X*X@X[.{.{.{.'.'.{.G.*.*.=.$.K S J P !.!.!.~.OX#X#X X) _ _ ) B B B ,.G.K.K.K.$X%X&XOXx.f.x.b.",
"H.G.D.G.[.{.{.'.K.K._.F.v z z z G E G 7.[.{.{.{.).K.'.G.k x > m [ _ / !.8X0XqX3XK.K.K.F.) L ~ <.m.N.B.B.b.b.M.x.2 > 5 2 5 5 5 5 ",
"H.D.H.H.'.'.[.'.(.K._.G.v z c A S S S ! [.}.{.[.'.).'.H.x x k l } y./ ~.0XwXwX8XK.K.K.D.T ) ) ) Z.m.V.B.B.M.M.x.= = = = 5 5 5 5 ",
"D.H.D.H.'.{.'.'.L.K._.G.v c z S K E D ! {. X}.}.`.'.{.G.x k x l } | ] ~.qXwXwX0XK.G.K.D.Y ~ ( ) m.m.B.B.b.b.M.x.2 = 2 = = 5 5 = ",
"D.H.H.K.'.'.{.(.G.G.G.S.z l c z S S S 6././././.K.K.G.D.k x > c / } ^ !.2X6X7X:X'.'.'.G.) ~ ~ <.B.B.A.B.M.B.B.n.5 5 5 > 9 N N 9 ",
"(.L._._._.'.'.G.E E E S c z c A S A S A k x k b #.=.=.#.J c A A S A A J ] ) ^ p.$X=X=X+X( L ~ q.D.D.D.J.`.K.`.^.Y ( a q.f.f.f.b.",
"(.'.'.'._.(._.G.E E E E S l S Z S S S A - x k x #.&.&.+.M A J S J A A J ~ [ D s.&X$X=X+X( ( ( q.D.D.D.J.).`.`.J.Y ( ( <.b.b.b.b.",
"'.L.L.'.'.).'.G.E E E E v S A S A S S c @ # X - #.&.&.#.J J m A J J A J ) ) ~ s.&X=X-X+X~ Y a q.H.D.D.H.'.'.'.^.( Y a Y f.:.:.:.",
"'.'._.'.(.'.'.G.E F K S l c z A S D S K 5.5.Q 4.+.#.#.+.c c A J J A J J P ( L s.OX#X#X Xr.q.q.p.D.K.H.D.J.K.K.G.Y s s >.D.D.D.D.",
"L.'._.'._.(.'.G.k - - - l l l S [ | ` Q.;X:X<X%Xc c m c c c c m A J A A < 7 < b *.=.=.:.`.'.].]./._.'.H.=.=.=.*.i i q g.9X9X9X9X",
"'._.'.'.'._.'.G.k - - - c S c S [ | [ Q.:X<X2X*XS c c c 7 c c c J J J t < c 7 b *.%.o.;.].].{.{.'.K.'.H.=.*.&.+.i p r g.9X0X0X0X",
"_.'._.'.'.'.'.K.g # - # + + @ l [ | ` !.<X4X3X*XJ c m c ; @ : - ; < < : < c < 5 %.%.%.;.{.}.{.{.'.'.'.K.=.*.=.+., q O e.9X0X0X0X",
"(._.(.K.G.F.H.S.k k - l 0.0.0.p.| | [ z.*X*X-X+Xc m A K 9.0.5.9.6.6.9.6.7 7 m m O.+.+.-././././.G.G.G.D.%.%.%.+.h.h.g.C.7X0X0X0X",
"(.K.K.F.g g & g l c h p.3X3X7X*X| } } [ P ! Q P S J < i.>X>X;X>X-X&X-X+XY Y Y L t J J J 7 7 b 0 7 5 5 9  . .. :.9X0X0X0X<X<X<X<X",
"K.K.L.H.& o o k c K h 0.6X6X8X:X| } } } P P D L Y L A p.;X<X4X<X-X-X>X@XY P Y L J J y t 7 < 7 7 5 5 5 5  .X.3 :.0XwXwXqX>X<X<X<X",
"L.K.K.G.o o o o l l + ! 3X6X9X:XI.| | u.P P P P A A h a.<X<X5X<X-X-X-X@X~ L L L w w q < 5 b 7 5 4 5 > 5 . .   ;.0XqXwX0X<X<X<X4X",
"_.'.L.H.n x x n 9.0.6.c.3X9X6X:X| ` [ | L L L P i.p.9.c.*X>X-X-X>X-X>X@X( ~ L Y 1.1.3.1.7 7 7 7 B 9 5 O.:.x.;.B.9X9X9X6X>X-X>X>X",
"}.}.{.'.M.n.x.V.;X:X:X:X4X4X6X;X` D ~ P < x - 4.-X:X:X-XD.D.V.K.6X6X6X,X_ ) ~ a.}.}. X].t t < I b.n.x.D.9X8X0X5X{.'.'.'.'.'.'.'.",
"}.}.}.{.B.N.b.D.<X<X4X<X5X<X6X-X! P ^ P x x % 4.;X4X<X>XV.D.B.K.6X6X7X,X_ ( ~ a.}.OXoX[.J t w I M.N.b.H.9X0X0X6X'.K.'.'.'.'.'.L.",
"}.}.}.{.N.M.b.D.<X<X<X<X6X6X6X;XP D L D > x # 4.;X<X<X>XD.B.B.K.6X6X7X1X_ _ ~ E. X}.OX[.t t t I M.N.n.G.0X0XqX6X_.K.K.`.'._.K.'.",
"{.[.'.K.n.x.f.Z.-X>X;X>X>X>X>X*Xr.6.r.6.> b & 8.;X<X<X>XH.D.D.K.<X<X5X&X_ ( a a.}.}.}.].t B 0 >.f.n.f.Z.4X6X6X<X'.{.{.'.K.'.L._.",
"M.M.M.n.| [ [ t.G.).K.K.)._./._.(.^./.G.%.....b.>X<X6X>XOXOXXX}.`.`.'.^.( ( a a.{.{.[.).=.*.+.+.i i u >.M.B.M.D.#X#X@X#X'.{.'.'.",
"M.M.n.n.[ | [ t.G.K.K.K._.).'._._.(.'.K.%.%.o.:.>X<X<X>XOXOX#X X`.`.`.J.( <.a e.'.{.{.K.=.%.=.*.t t r i b.M.b.B.#X#X#XOX'.'.].'.",
"M.N.B.M.t.[ } t.G.K.K.K.'.).'.'.'._.'.H.&.%.X.x.>X5X<X>XOXOX#XOX'.`.`.^.a a a w.{.{.}.`.=.=.=.*.t t r I M.B.B.V.#X#X#X#X{.{.'.{.",
"f.x.n.d.' ' ] t.S.F.F.F.`.`.'.K.L.L.L.H.&.&.X.x.-X,X>X-X}.XXOX}.'.`.`./.q.w.q.i.^././.F.+.+.+.O.p y p p f.n.f.N. X X X XK.K.K.).",
"S c v c A c c S [ [ [ t.G.).).K.D.V.D.V.=.&.&.:.'.'.`.'.'.'./.'.XX X X}./.K./.D.9 5 4 5 7 0 7 i Y.Y.T.Y.i i i u u u i i +.=.=.=.",
"c v A A M J m K ) [ ^ s.).K.K.K.D.D.D.V.=.=.&.;.K.`.K.'.).'.'.{.XXXXXX X'.'.'.G.5 1 1 5 7 0 0 t T.T.T.Y.i u i u u 0 u 0 *.*.*.=.",
"l @ ; l ; l ; l ) [ ] u.L._.).).D.D.D.D.&.=.%.:.`.'.'.'.'.'.'.'.OXOXOXXX'.'.'.G.* * * * , 6 6 r Y.U.T.Y.r r 6 r u i u i #.&.=.=.",
"0.0.0.0.7.9.9.9.[ ) ^ r.F.J.F.F.V.B.Z.M.#.#...-.G.G.G.G.'.'.'.{.[.].[.'.F.H.G.S.2.2.$.2.2.3.2.1.Y.U.U.Y.>.>.>.>.u u u 0 +.+.+.+.",
":X,X,X,X,X;X<X&X> - > x > x x 2 = x > : > 5 > 5 J J y ,./.'.'.H.7 4 7 7 5 4 1 2.;X,X;X>X@X+X$X X( s s e./.K./.F.u u u u u u u u ",
"2X<X<X<X<X<X2X*Xx > > > x > x x > > > > > 5 5 5 t J w 1.K.'.'.F.7 7 5 5 5 8 * $.,X<X<X>X$X#X&X Xs s s e./._.'.F.i u u 6 u u t r ",
"<X<X:X<X<X<X2X&X- & > - % X % % > > = > % % $ % J y w U K.'.'.G.5 < 7 5 $ * O O.;X<X<X,X$X$X$X+Xs s e e./.'.`.G.i 6 u u u u u u ",
"<X4X<X<X>X>X>X&Xc < > b 8.8.8.,.< 7 < m 8.8.8.4.J J t 1.J.G.K.D.7 7 5 8 d.d.8.C.;X<X<X,X#X#X#X Xw.e.e.g.`.`.'.J.1.>.3.>.0 0 i 0 ",
"6X6X9X:X).K.`.G.K Y w p.:X2X6X;XI.I./ W.:X2X3X&Xy t t J =.=.=.=.u i , h.qXwXwXqX=X-X=X$X'.K.'.'. X X X}.`.`._.'.[.'.{./.*.*.%.*.",
"6X6X6X<X).K.K.F.L L A p.4X6X9X:XI.I.P.!.2X5X9X-XJ t t J &.+.=.+.t Y , h.qXeXeXqX-X$X=X$X`.'.'.'.XXXXXXXX'.`.`.'.{.}.}.`.*.*.*.%.",
"9X9X9X<X).K.).F.J P A s.2X6X6X;XI.I.P.W.5X6X6X>Xt q t 7 &.=.=.+.J i , h.wXeXeXwX-X-X-X$X'.K.`.'.XXOXOXXX`.`.`.'.{.}.}.'.&.%.=.%.",
">X<X<X>XK.).'.G.J J w p.,X5X6X;XE.E.w.~.;X>X<X*X,.U 1.>.+.+.+.O.i I q j.7X8X8X7X#X$X$X#X'.'.'.{.}.}.}.}.'.'.'.'.'.`.{.H.+.+.+...",
"G.H.H.K.{.{.{.'.m < : I $X*X=X$X'./.'.(.K.K.K././.K./.G.i t t t t t t t t i r <.`.'.`.'.}.}.}.XX}.}.{.}.XXOXOX{.;.=.;.*.9 4 1 1 ",
"H.H.H.G.[.{.}.`.7 b > 4.$X$X*X#X{.'.'.'.H.K.H.K.K.K.'.H.t 7 t 0 i i r t t i r 1.K.)._.'.}.XX}.}.{.].{.{.OX}.OX{.=.;.-.*.1 1 1 4 ",
"H.G.J.H.{.{.}.(.- > : ,.$X-X-X$X{.'.'.'.K.K.K.L.'.'.'.G.t t t t i 0 t 0 r r r >.K.'.'._.oX.X|.}.}.}.}. XOXOX#X}.;.=.;.*.1 1 1 4 ",
"H.K.J.K.'.{.[.(.B V 9 4..X#XOX X^.K.G.H.F.D.A.D.F.F.G.Z.i t t t y y y p >.>.>.3.K.).K.).].].[.].`.`.`.].].].].'.-.+.-.+.9 9 9 9 ",
"K.K.H.K.H.H.G.D.D.D.F.Z.J < 7 < = * = = * 2 * 2 5 5 5 5 t t 0 y T.T.T.R./.`.`.`.b.b.M.f.u u p u 8 8 4 8 8 7 8 0 4 4 4 9 M.B.M.B.",
"K.H.K.K.G.H.H.H.D.H.H.Z.7 < 7 7 = = = = 1 1 2 2 2 1 1 5 t 0 7 y T.T.T.R.`.'.'.`.b.b.b.f.u 0 u u 8 6 4 8 8 8 8 7 4 4 1 9 M.V.B.B.",
"H.K.K.H.K.G.H.G.F.D.H.S.c 7 0 7 = = = 2 2 1 2 2 5 5 1 5 t y u a T.T.T.R.`.'.'.).b.b.b.f.p u p i 8 8 8 8 0 0 8 8 4 1 4 9 B.B.B.B.",
"K.K.K.K.H.H.H.H.H.J.H.Z.7 7 7 < = = 2 =   1 2 * 1 1 1 5 0 y u s T.T.T.R.`.'.'.K.b.b.M.b.i u u u 8 8 8 8 8 8 8 8 1 8 4 9 B.B.B.V."
};
