/* XPM */
static char *fe1136a0853540a8d8d83f7c4d374fc3[] = {
/* columns rows colors chars-per-pixel */
"64 64 147 2 ",
"   c #020C0B",
".  c #0C0F0E",
"X  c #130F0F",
"o  c #1B0F0F",
"O  c #11100F",
"+  c #1E0F10",
"@  c #001110",
"#  c #141111",
"$  c #1D1313",
"%  c #220000",
"&  c #2D0101",
"*  c #340101",
"=  c #3B0202",
"-  c #340D0C",
";  c #3C0C0C",
":  c #3F100F",
">  c #231515",
",  c #2B1414",
"<  c #271817",
"1  c #271818",
"2  c #2C1A1A",
"3  c #341515",
"4  c #391313",
"5  c #331817",
"6  c #341E1E",
"7  c #3B1D1D",
"8  c #34201F",
"9  c #3F201F",
"0  c #351F20",
"q  c #3D1F21",
"w  c #2D2121",
"e  c #362020",
"r  c #3C2222",
"t  c #440202",
"y  c #4A0202",
"u  c #430D0D",
"i  c #4C0C0C",
"p  c #560202",
"a  c #5A0101",
"s  c #510D0D",
"d  c #5B0B0B",
"f  c #540F10",
"g  c #441112",
"h  c #4A1716",
"j  c #46171A",
"k  c #441E1E",
"l  c #4B1B1C",
"z  c #531212",
"x  c #660101",
"c  c #6B0202",
"v  c #660808",
"b  c #740101",
"n  c #790101",
"m  c #750908",
"M  c #6E1314",
"N  c #721213",
"B  c #4B1E20",
"V  c #432525",
"C  c #4A2424",
"Z  c #452826",
"A  c #4A2827",
"S  c #462728",
"D  c #492728",
"F  c #472928",
"G  c #4B2A2A",
"H  c #522727",
"J  c #532827",
"K  c #532E2E",
"L  c #5D2D2C",
"P  c #54302F",
"I  c #5E312F",
"U  c #532F30",
"Y  c #543131",
"T  c #5C3333",
"R  c #612D2D",
"E  c #64302F",
"W  c #623534",
"Q  c #653836",
"!  c #683937",
"~  c #633738",
"^  c #653A3A",
"/  c #6C3C3B",
"(  c #783537",
")  c #7A3639",
"_  c #723E3D",
"`  c #783E3E",
"'  c #73403E",
"]  c #7A423F",
"[  c #6D3F40",
"{  c #703F40",
"}  c #6E4143",
"|  c #734243",
" . c #7C4542",
".. c #7E4844",
"X. c #754648",
"o. c #794749",
"O. c #7C4B4B",
"+. c #860202",
"@. c #8B0101",
"#. c #840708",
"$. c #850B0C",
"%. c #8B0B0B",
"&. c #930101",
"*. c #9B0101",
"=. c #8C1515",
"-. c #9C1214",
";. c #A50303",
":. c #AB0101",
">. c #824744",
",. c #8B4745",
"<. c #844946",
"1. c #8D4947",
"2. c #864A49",
"3. c #8B4B49",
"4. c #924746",
"5. c #954947",
"6. c #934C4B",
"7. c #9B4D4B",
"8. c #814F50",
"9. c #974A50",
"0. c #9C4D52",
"q. c #965253",
"w. c #9C5254",
"e. c #9D5758",
"r. c #A14F4D",
"t. c #A3504E",
"y. c #A14F56",
"u. c #A45254",
"i. c #A95353",
"p. c #A65358",
"a. c #AC555B",
"s. c #AB595B",
"d. c #B2575C",
"f. c #B4595E",
"g. c #B85D5F",
"h. c #BB615E",
"j. c #B35960",
"k. c #BB5E62",
"l. c #BE6161",
"z. c #BE676D",
"x. c #BF686E",
"c. c #C25E67",
"v. c #C55F68",
"b. c #C26461",
"n. c #C1686F",
"m. c #C46A71",
"M. c #C96D74",
/* pixels */
"' ' ' ' | ' | ' d a a a @.@.@.+.= & & - | X.| X.j.j.j.a.>. .>. .r 6 6 F g.k.k.l.b.b.b.b.,.,.,.>.t & * * 6 r e 6 > $ # 2  ... ...",
"' ' ' ' ' ' ' ' d a a a @.@.@.+.= & & - } X.X.o.a.j.j.a.>. ... .r 0 0 F g.k.k.k.b.b.h.h.,.,.,.>.u * = * 8 e e e > $ # 2  ...>. .",
"' ' ' ' ' | | ' d a a a @.@.@.+.* % % & } X.} X.a.j.j.j.>...>.] V e 6 F f.l.l.k.b.b.b.b.1.,.,.,.; & * & 6 8 6 w $ $ $ 2 ] .. ...",
"' ' ' ' ' _ ' _ d a a a +.#.+.#.l k l B X.o.X.O.a.a.j.p.>. .>. .r 6 2 F f.l.g.g.b.h.h.g.,.>.>.>.h ; g g V V V S > $ $ 2 ] >.>.] ",
"' ' ' ' e e r r a a a a T T K ~ x.n.n.n.t.7.r.7.2.2.2.2. .{  ._ < $ $ 8 r.i.i.t.] ]  .` 9 6 5 V 5.r.7.0.u.u.u.w.V 6 0 q ( ) ) ) ",
"' ' ' ' e 8 e 6 p a a d Y Y Y ~ M.M.M.n.t.r.r.r.<.2.<.>.{  . ._ 2 $ O 5 r.u.i.t._ / _ / 5 , , 5 7.i.r.t.p.p.p.p.V 0 e r ( ) ) ) ",
"' ' ' ' r 8 e 9 a a a a Y Y U T n.M.M.n.t.r.r.r.2.<.<.<. . .{ ` < $ O 8 t.t.i.t.] _ ' / 6 , > 7 0.u.y.y.p.p.p.u.V 2 6 r ) ) ) ) ",
"^ / ' / r 8 e 8 d d d f T T T / n.n.n.n.t.7.r.r.2.<.<.<.` ` ` ` 2 $ $ 5 r.t.t.t._ / _ / 9 5 2 B 7.0.7.u.u.p.p.w.G V V D ( ) ) ) ",
"r r r q 1 $ $ 1 G U U T p.a.a.a.2.<.<.2.' ' ' ' >.>.2.>.V r r r 8 8 8 6 6 5 5 6 V V V C / _ / _ ' ' ' ' ! ! W / w.w.w.0.W R R R ",
"w 0 0 0 $ $ # 1 U U U T j.j.j.j.<.] ] ] _ ! ! ! <.2.>.>.r 6 e 0 8 9 8 8 X X # $ V r r V _ _ _ _ _ _ _ ' T T T Q u.p.p.u.R R R R ",
"0 0 0 0 $ $ # 1 U U U T p.j.j.a.<. .....! ! ! _ <.2.<...V e e e e e 9 8 > $ $ > r V V V _ _ _ _ _ _ ' ' Q W W ! w.p.p.w.E L R R ",
"0 0 0 0 2 1 1 w T T Y ~ p.j.j.a.>.....] ' _ ' ' >...>...r 6 e 0 8 6 8 6 > > > > 7 V q V / _ / / ' _ ' ' W T W ~ 0.u.w.w.R L R L ",
"> > $ 1 [ [ [ [ y.p.p.y.8.2.2.2._ ! ' ! <...<...T Y Y P 1 $ > $ $ > $ , p p a p = * * * r r e Z ] o.o.o.T T T T T T T T V r r 0 ",
"$ $ $ 1 [ { [ O.p.a.p.p.2.2.2.>.' ! ! ' ..<.<.<.Y G P P > $ $ > $ $ o > a a a a = * * * e e 6 r  .O.o.o.W T T T U U Y G 7 6 0 0 ",
"$ $ # 1 [ { { { p.a.p.p.2.2.<.>.! ' ! _ <.<.....Y P P G # . X X # # # > p a a a * * * * e e 8 r o.O...O.T T T T Y U Y Y e e e e ",
"> > $ 2 [ [ [ { p.p.p.p.<.<.>.>._ ! _ ! ........Y G G P 7 7 7 7 6 5 2 6 d d d d t = = t 7 q 7 V X...X.X.T T T T U U K K r 7 9 7 ",
"q q 7 7 , 1 > q p.a.a.p.[ ^ ^ ^ Y Y Y Y Y Y Y Y < > $ 0 a.d.d.i.5.4.6.4.<.] ] ] #.@.@.@.b b b m 8 2 2 2 < > < < e r e r m b b b ",
"7 q k 7 $ $ . 6 y.a.a.y.[ ^ ^ ^ U U G G Y P P P > $ . 6 d.d.d.d.7.r.7.7...] <.<.%.@.@.@.b b b b + O o o + > $ $ 6 8 e 7 b b b b ",
"j j 7 k > $ X 6 p.a.a.p.[ [ [ ^ U U U U P P Y P > > O 6 a.d.d.d.7.7.7.5. .>...] %.&.&.@.b b b b < $ $ $ O O O $ 8 8 e 7 b b b b ",
"7 7 7 7 > > X 7 y.p.p.u.^ T T ^ G G G U U U P U > $ O 7 a.d.d.d.7.7.7.5.<.] ..] =.@.+.+.n n n b , $ $ > 6 6 6 6 r e e r c b b b ",
"V r r r * * * * S S S S 1 1 1 2 e e e e e e e e $ > O 7 t.i.i.i.3.3.3.3./ Q ! Q 9 k 9 l ;.:.:.:.- # O 6 r.t.t.t.T U Y G s y p y ",
"r r V r * * * * 2 6 6 2 $ # $ $ e r e r e e e e $ > O 6 t.i.t.t.3.3.3.3.! Q Q W r 6 w 9 :.:.:.:.5 $ o 7 t.i.i.u.T U Y U y y y y ",
"r r r r * * * * 0 r e e > $ $ $ 2 e 6 2 2 6 e w $ $ . 5 t.i.i.t.6.3.3.3.! W W ~ r 7 e k ;.:.:.:.- @   2 t.i.i.u.Y U U U y y y y ",
"V C S V ; ; ; : 0 e e 0 > $ $ 1 G G G G F F A Z 2 < > 7 7.t.t.r.3.<.<.3.! ! ! ~ r 6 6 V ;.:.:.;.k 8 8 C u.i.i.t.~ Y T T i y y y ",
"2.2.3.,.] ]  ._ r 6 e e e e w G z.m.x.x.j.f.h.s.' ^ ^ ^ Z S V V z s i z ] .. .] r 8 9 8 4 4 - k i.a.d.a.i.i.i.u.0.7.r.5.J V V V ",
"3.3.3.2.>...>...V 6 r 8 e e 2 G m.M.M.M.l.k.l.j.| / ' / r 2 e 6 t y y i ..>...] r 8 e 8 # $   6 d.d.d.d.i.i.i.i.r.r.r.7.G V S V ",
"3.3.3.3.] ....] r e 6 e e e 2 F x.M.M.M.l.k.h.g.' ^ ^ ^ r 6 6 6 y y y s ..>... .r w e e # #   6 a.f.f.d.i.i.i.i.r.r.r.7.G r V V ",
"3.3.3.3....... .r 6 6 r r F r Y z.m.m.x.k.g.h.g.' ^ ' ' V r V V i y y i ] ]  .] C 9 9 r r 0 6 C d.d.s.s.i.u.i.t.r.r.r.7.K V Z Z ",
" . .>.>._ _ ' _ r e 6 r q.e.q.q.o.| | o.2.2.<.2.2.3.3.3... . .' V 6 0 7 h h h z &.*.*.-.i.a.a.s.5.6.6.6.6.6.6.6.2.<.3.>.T T T T ",
"{ { { ` _ _ ' _ r e 0 Z q.e.e.q.{ [ / [ >.2.<.<.3.3.3.3... .>. .r e e e u u u i *.*.*.-.d.f.f.d.5.6.3.6.6.6.6.4.<.<.<.>.~ T T T ",
">.` ` ` _ ' ' _ r e 8 Z q.e.e.e.| [ [ { 2.<.>.2.3.3.3.3... ...] r 6 e 6 g u u i *.*.*.-.d.d.s.d.q.6.6.6.6.6.6.6.<.<.2.>.T T T T ",
"{ >.{ >.] ' | ' r e 6 r q.e.e.q.{ [ [ { >.2.>.2.2.3.3.2..... . .r r r r i i i s *.*.*.;.d.d.f.s.6.3.6.3.3.6.6.3.<.<.>...W T T T ",
"_ _ _ ] p.p.s.u.7 O $ 2 / } ' } / _ _ '  ..... .' Q Q ! _ _ ' _ T T T I m n b n b c c N a.a.d.p.2.<.<.<.<.<.2.>.K Z F F G G G G ",
"_ _ _ ' s.s.s.p.6 O $ < ^ ^ ^ ^ _ _ _ '  . ... .T T T T _ _ _ / W T T W m n n n c x x N a.a.a.p.2.<.<.<.<.<.<...Z V V V G F A A ",
"_ _ _ ' s.s.s.p.6 O $ < ^ ' } ' _ _ ' /  . ...o.T T T W _ _ ' ' T T T T m n n n c c x M i.d.a.a.<.<.<.<.<.<.>...F V S S A A A G ",
"_ _ ' ] e.e.p.w.6 $ $ 2 ^ ^ T [ _ _ ' ' <...>.>.' T E W _ _ ' ' T T T W m n b b x x x M i.i.a.p.2.<.2.<.<.>.<...G Z S V F G A A ",
"6.6.q.6.V 6 7 7 6 e 6 e G U G U P T P W a.d.d.a.' ' ' T T W T T T T T P 3 , , , 7 9 6 9 V Z V G 8.8.8.O.X.' } ' P K P K G F F F ",
"7.q.q.6.,   X # 7 e e r F G G G K P K W d.f.d.d.' W W ' T T T T P P T Y > # # $ 8 8 8 8 0 e 2 r O.8.8.O.} ' } ^ P K K K A A A F ",
"q.q.7.6.6 X $ > w 6 e e G G G G Y Y L W d.g.g.s.' ' ' ' T T T T T I T L > $ $ > 8 8 8 e e e e V O.8.8.O.} ' } } P P P P F Z F Z ",
"6.6.9.3.6 X > > k k k V G G G J L Y K T p.s.a.i.! W ' T T T T Y Y L T K > $ $ > 6 8 6 0 e e e r o.O.O.O.' ' T } K L K K G H A H ",
"V V V r * * * t ;.:.;.:.c v c v l B k B V V Z D d d d d < < < , > > > 2 7 5 0 5 > $ $ > y y y y r r V r k k r B ; * * u +.+.+.+.",
"8 6 0 6 = = * t :.:.:.:.b c c x l k j k 8 6 6 6 a a a a > $ + > > $ $ > 3 0 7 4 > $ + > y y y y e e e 6 5 7 7 4 * * * = +.@.@.@.",
"2 0 0 6 * * & t :.:.:.:.c x c c l k k k r e e 0 p a a p + O O O . . . O 2 0 5 , $ $ $ > t y y t 0 8 6 6 k 7 7 k = * * t @.@.@.@.",
"Z F S V ; ; ; i :.:.:.;.b x x x l 7 l k 0 e e 7 p a a p 5 6 7 6 B q q 0 B B B B > $ $ > z f s z V r r V k 7 k 7 * * * = +.%.#.#.",
"d.d.d.a.| [ } / %.&.@.&.x a a a , $ $ > 6 e 0 6 > , o 5 r.r.r.t.k.k.k.k.a.p.a.p.B w 0 V 9.7.7.7.2.2.3.2.4 * = * q q 0 q W ~ Q ~ ",
"d.d.d.a.o.| X.| %.&.@.@.a a a p > $ $ $ e r r e > > O 8 r.i.i.i.v.v.v.v.a.j.d.a.S 0 0 V 0.0.w.w.3.3.3.,.; * * * q r q B ~ ~ ~ ~ ",
"d.d.d.d.X.} } | &.@.@.@.a a a a > # $ $ 2 6 2 2 # #   5 r.i.i.i.v.v.v.v.j.a.j.p.S 0 0 V 6.w.7.7.6.3.3.2.; * * * q q q q W ~ Q W ",
"d.d.d.a.X.} } } =.%.=.%.a a a p , 2 2 2 F G G F 8 5 2 9 r.i.t.t.k.c.k.c.a.p.a.p.S w 0 q 0.u.w.u.2.2.2.2.g * ; ; q q 0 B ~ ! ! ~ ",
"r.7.7.5.Q T T I ,.5.5.5.V 8 9 9 } } } X.h.h.h.h.6.3.3.6.,.<.3.<.>.>.>.>.~ [ ^ ^ 0 0 0 D p.j.j.j.Y S G G ^ ^ ^ ! r 8 8 V 2.6.3.6.",
"5.7.r.5.' I T ' 5.5.5.5.9 8 8 9 X.X.X.O.l.l.b.b.6.6.6.6.<.<.<.<... ... .T T T T r 0 0 V a.j.j.a.J V V S ^ ' ' ^ r e 8 V 3.6.6.6.",
"7.7.7.5.T P P ' 5.5.7.5.Z 8 8 8 } X.} X.l.b.b.h.6.6.6.6.<.<.<.,.....o.o.T T T T e 0 w V a.j.j.a.K V S S / ' / / r e 8 r 3.6.3.q.",
"7.5.7.5.' Q T ' 1.5.5.1.Z 8 8 r X.X.} X.h.h.l.h.6.1.6.1.<...<... . . .X.~ T T Y r B q D p.j.a.a.K V S F ^ ^ ^ Q e e w V 3.6.6.3.",
"] <.....<.<.<.] G Z G Z 2 2 2 8 ^ ' ^ ' 2.2.2.2.<.<.<.<.' ' ' ! T ~ T T r r e V #.+.+.$.) | ` _ T T W I 2 < < < $ > $ 6 2.3.3.3.",
"] ] ....<.<.<.<.Z 8 9 r 2 5 , 7 / / / ' >.2.>.>.<.<.<.<.' ! ! ' T T T T r 6 e 7 +.@.@.#._ _ _ _ W W W T < O $ $ $ > O 2 2.3.3.<.",
"..<.] ..<.<.<.<.Z 9 r r 5 2 2 8 ^ / / / 2.2.2.2.<.<.<...! ' ' ! T I T T r e e 9 +.@.@.#._ ` _ _ W W W T < $ $ $ $ $ O 2 <.6.3.3.",
"] ] ] ......<.] Z r V r 2 5 5 5 ^ / / ! ..>.>.<.3.<.3.<.! ! ! ! Q Q ~ ~ r 6 8 k #.+.+.%._ { _ _ T T I T > $ $ $ < < $ 8 <.<.<.<.",
"V V Z r V Z Z Z Z F F Z - * * * 1 1 1 2 H H H L y.y.y.y.0 > > 7 w.u.p.0.z t y y 7 V 7 V ,.2.2.,.Z 8 9 9 $ $ $ < ! ^ T ' r r r Z ",
"8 r 8 9 r r r r F Z F Z * * * * + + # $ C B B J y.p.a.y.6 X X 6 u.a.a.y.f y y y e e 6 r 2.3.6.2.r w 8 8 > $ $ < ^ ' ' ^ e w 8 e ",
"9 r 9 8 r r r r F F F Z * * * * > $ $ > B B C J y.a.y.y.7 # # 6 u.a.p.y.z t y y 8 e e V 2.3.3.2.V 8 8 8 $ $ # < ^ ' ^ ' r e e e ",
"r r V V Z V Z Z F F F Z ; - = - $ $ + + J K J L y.y.y.0.6 + o 6 0.y.y.0.z y y y 6 e 6 r ,.2.2.2.9 8 8 8 < < > 2 ! ' ^ Q r e r e ",
"' ' ! ' ..>.<...U r r F P Y Y P 1 $ # 0 9.0.0.9.B 2 0 5 * * * * g g g g > > > + > $ $ 1 r r V V u t t u I I I I G G G G T T T T ",
"' ' ' ' <.<.<.<.F r F r Y Y Y Y > $ # 0 0.y.y.0.2   # + * * * * & * & * + $ $ $ $ $ $ $ 8 6 6 6 t t t t E T I I G G G G T T T T ",
"_ _ _ ' <.<.<.O.F r r F Y Y Y Y > $ X 0 0.0.y.9.0 # > $ * * = * * * * * + $ > $ $ $ $ > e e e 6 = t t t I E I E G G G G T T T T ",
"_ _ _ _ <.<.2.O.G r F r Y Y Y Y > + X 0 0.y.y.9.6 # > + * * * * * * * * > $ $ $ $ $ $ $ 6 e r 6 t t t u I I W T G G G G T T T T "
};
