/* XPM */
static char *_2f3d5a1cb6c41c8bf8b31da9c45a46d[] = {
/* columns rows colors chars-per-pixel */
"64 64 33 1 ",
"  c #4F3B1F",
". c #503C1F",
"X c #513D20",
"o c #564123",
"O c #5A4424",
"+ c #5A4628",
"@ c #5E492A",
"# c #644B27",
"$ c #664D28",
"% c #684F29",
"& c #6C522B",
"* c #70552D",
"= c #7F5E2F",
"- c #7E5E31",
"; c #805F31",
": c #826133",
"> c #856538",
", c #866C39",
"< c #8A6E3B",
"1 c #8C703C",
"2 c #95753F",
"3 c #977740",
"4 c #987740",
"5 c #9B7A42",
"6 c #9F7B48",
"7 c #A37E4A",
"8 c #A5804C",
"9 c #AC864C",
"0 c #AF884D",
"q c #B0894E",
"w c #A68351",
"e c #AF8A52",
"r c #B08B52",
/* pixels */
"w8ww668888880eeeqrrrrrqrrrrrqrre8888rrrrqrrrrrqqrrrrqqr08w87:>>-",
"8777552288860000000000000q0000008777qq0qqqqq000000q000q07877:---",
"87775555858800qq00qqqqq0q0qqq0q0887800qqqqqqqqq0qqq0q0008786:-:-",
"w778555588880000900000009090000977780000qqqq000000000q098777::::",
"8778777755555555::::56551111887878877887555552288888878755555545",
"w778787855555582:-::25541<11778777777777555558258887877755555555",
"8777777755555522:=-:5555<1,1777787777777555555558887787755555555",
"8777878755555282::::5554<<,1777777777777525555555878777755555444",
"655578879887778755458877<<<<11111<11111111,15555555577788777;;::",
"655577778888877755557777<<<<,<,<<<<<,<,1,1,15555555578788777;--;",
"6255787888887787555578871<<<111<<<<<1<<<11115555555588888887;-;:",
"824277677575777552555676<,,,,,,,,,<,,,,,,,,,2222522366666675----",
":::-&&&&&&&&;::::::-&&&&oooooooo%&&&%&&&oooo&&&&OOOoOOoO&&&&oXoo",
":=-=%$%$%$$%=;=;:-:=%$%#XXXXXX.X$$%$$$$$X .o$$$$....   X#$$#XXXX",
":=:=%$$%%$$%=:===--=%#%#X ..XXXX$$$%$$$$X  X$$$#. .X XXX$$%$XXXX",
",:>-*&&&%%%&::::::>-*&*&OOOOOooo&&&&&&&&OOOO&&&&oOoOOOoO%&&%OOoo",
"86779998:;;:9000999999999999,,,199999900999977574225252211,15775",
"88780000::;:0q00q0qqqqqqq00011<19qqq0qqq0q0q77877255555511118888",
"87780000:;;:9000q000000000091<,10qqqqqqq00q077875255552211,17777",
"w8770009::::90000009000099091,<1999900qq90q077777275555211117877",
"8255788775775558111125551111:==:11115555255787778877857877772555",
"5555777887775522<<<<5555<1<,=:=:,1,15555555277878887887777772555",
"82557778878855251<<12555<,1,:=;;1,115555555578887777878778785555",
"82227777788955221<1155551111:=;:11115555555578897777777777885555",
"1<<111<122558787552555555552;;;:57777777777755555555<<<<<1111111",
"1,,<<<<<28256877555555555555:;;:78777777778772555552<<<<,,1,,,<,",
"1<111<1155588888555555555555;;;;777777787777272555551<<<11111<1<",
"<,,,,,,,22226865525552222222==;;57777757757722222522<<<,,,,,,,,,",
"+ooooooo*&&%&&&&;:;;&&&%OOOooooooOooXOOO&&&&&&&&*&%&;;:;&%&%oooo",
"o .o..XX%%%%#%%%;;;;%$$$o..o..o.XXXX....#%#%%#%%&%%%;;;;$$$$....",
"o .....X##%#%#%%;;;;%$$$........X.XX...X%##%#%%#%##%;;;;%#$$....",
"@o+o+OO+&*&*&&&&;::;&&&&OOOOOOOOOOOOo#OO&&*&*&&*&*&*:::;&&&&OoOO",
"7757990q9999767655555222999989900099999999999999999999997775<<,,",
"8888qqqqqq008888555552829q0qq00qq0qq0qq0qqqqqqqqqqqqqqqq8785<<<<",
"87880qqq00007776555555270qqqqq0q00q0qq0qq0qqqqqqqqqqqqq08777<<<<",
"878899qq000988875555555590009000099099900qqq999909q999007777<<<<",
"87785555888787779777778755551111111<<<2<555511118887<1<1111<;:-:",
"8777555577777878887877775555<<<<<<<<<<<<555511,18877<,<<<,<<;;;-",
"8787555287878878787877775555<<<<<<<<<<<<5572<<1178871<<1,<<,--;;",
"8787555277876878785777775552<<<<<<<<<1<<25221<115875<<<<1111::;:",
"r000778755555555<<<1<<1<<<<<<<<<54555552555555551111<1,17776<<,<",
"r000777755555555<<,<<<<<<<<<<<<<55555555555555521,<,,<117777<<<<",
"r0qq778855555555<<<1<<<<<<<<<<<<27555555555555551<1<111178771<<<",
"99987675444455521,<<,,<,,,<,,,,<2222225252552222,,,,,,,,5676,,,,",
"+OooXooo%&&&::::;;:;&%%%oOXooOoXOoOO%&&&::::&&&&&&&$ooooOooooooo",
"X.XXXXXX$$$$=;;;;;;=&%%%XXXXXXXX...o#$$%=:;=$$$$$$$#XXXXXXXXXXX ",
"oXXXXXXX$$#&==::==:;%###XX.X.XXX...X#$$%=:=-$$$$$%$#X XX  X  X  ",
"#oOOOooo&&&&::::::::&&&&OOooOoooOOOO&*&*::::&&&&&&&&OOOOOOOOOOO+",
"e809:==-67779990099077776776<<<<999999999099<,,19099577799999999",
"ee09::=:78789qqq00q077777777<<<<9qqqqqqq00001<110q00887709qq0000",
"r9q0::::7778000000q077777777<<<10qqqqqqq00001<1190008788qqqq0000",
"0909::::77779000000077777777<<<<9999999900001<1100008889909q0000",
"6555555577778797111<<<<14555<<<<<<117877878755558887225555552255",
"6555555577777777<<<<<<<14554<<<<<<<17787887755557887555555552855",
"62555555777777771<<<<<<<5555<<<<<<<17777878755557878755555555555",
"55555255777777771<111<<<4554<<<<<1117787777752526776225255255555",
"65521111<<<<5555777754541<<<:;;:8877777855551111<<<<1<112<<<<<<<",
"55551,<,<<<<555577775555<<<,:;;:7877787755551<<,<<<<<<,,<<<<<<<<",
"82551<1<<<<<55557778555511<<-;-:78787787555511<1<<<<<<<<<<<<<<11",
"5222,,,,<<,<222266754443<,<,:;=>577567752222,,,,,,,,,,,,,,,,,,,,",
"+Xoo$&&%&%&%OooOoOXO$&&&-:-:;;;;;:>-&%&%oooO%&%$oooooooooooooooo",
"o XX$$$$$$$#.X. XXXX$$$$-:;=;;;;;-=-%$%#o...$$%$X....X.. .......",
"oXoX$$$%$$%%XXXXXX.o$$$&-;;;;;;;;;:-%$%$X..o$$%$o.XX.XX..Xo.o.o.",
"O oX$&$$%$%%X.XXXXXX$%$%-;;;;;;;;;;-%$%$o..X$$%$...ooXXoX....o.."
};
